<svg width="24" height="25" viewBox="0 0 24 25" fill="none" xmlns="http://www.w3.org/2000/svg">
<g id="bxl-linkedin">
<path id="Vector" d="M4.98292 7.38393C6.19132 7.38393 7.17092 6.40433 7.17092 5.19593C7.17092 3.98754 6.19132 3.00793 4.98292 3.00793C3.77452 3.00793 2.79492 3.98754 2.79492 5.19593C2.79492 6.40433 3.77452 7.38393 4.98292 7.38393Z" fill="#013A37"/>
<path id="Vector_2" d="M9.23722 9.04193V21.1809H13.0062V15.1779C13.0062 13.5939 13.3042 12.0599 15.2682 12.0599C17.2052 12.0599 17.2292 13.8709 17.2292 15.2779V21.1819H21.0002V14.5249C21.0002 11.2549 20.2962 8.74194 16.4742 8.74194C14.6392 8.74194 13.4092 9.74894 12.9062 10.7019H12.8552V9.04193H9.23722ZM3.09521 9.04193H6.87021V21.1809H3.09521V9.04193Z" fill="#013A37"/>
</g>
</svg>
