<svg width="24" height="25" viewBox="0 0 24 25" fill="none" xmlns="http://www.w3.org/2000/svg">
<path d="M19.633 8.18394C19.646 8.35894 19.646 8.53294 19.646 8.70694C19.646 14.0319 15.593 20.1679 8.186 20.1679C5.904 20.1679 3.784 19.5069 2 18.3589C2.324 18.3959 2.636 18.4089 2.973 18.4089C4.78599 18.4133 6.54765 17.8071 7.974 16.6879C7.13342 16.6727 6.31858 16.3954 5.64324 15.8947C4.9679 15.394 4.46578 14.6948 4.207 13.8949C4.456 13.9319 4.706 13.9569 4.968 13.9569C5.329 13.9569 5.692 13.9069 6.029 13.8199C5.11676 13.6357 4.29647 13.1413 3.70762 12.4206C3.11876 11.7 2.79769 10.7976 2.799 9.86694V9.81694C3.336 10.1159 3.959 10.3029 4.619 10.3279C4.06609 9.96052 3.61272 9.46196 3.29934 8.87673C2.98596 8.2915 2.82231 7.63779 2.823 6.97394C2.823 6.22594 3.022 5.53994 3.371 4.94194C4.38314 6.18696 5.6455 7.2055 7.07634 7.9316C8.50717 8.65769 10.0746 9.07515 11.677 9.15694C11.615 8.85694 11.577 8.54594 11.577 8.23394C11.5767 7.7049 11.6807 7.18099 11.8831 6.69218C12.0854 6.20336 12.3821 5.75921 12.7562 5.38512C13.1303 5.01104 13.5744 4.71435 14.0632 4.51201C14.5521 4.30968 15.076 4.20567 15.605 4.20594C16.765 4.20594 17.812 4.69194 18.548 5.47794C19.4498 5.30355 20.3145 4.97436 21.104 4.50494C20.8034 5.43575 20.1738 6.22504 19.333 6.72494C20.1328 6.63372 20.9144 6.42339 21.652 6.10094C21.1011 6.90404 20.4185 7.60828 19.633 8.18394Z" fill="#013A37"/>
</svg>
