<svg width="24" height="25" viewBox="0 0 24 25" fill="none" xmlns="http://www.w3.org/2000/svg">
<g id="bxl-instagram">
<path id="Vector" d="M11.999 7.56393C10.7726 7.56393 9.59651 8.0511 8.72934 8.91827C7.86217 9.78544 7.375 10.9616 7.375 12.1879C7.375 13.4143 7.86217 14.5904 8.72934 15.4576C9.59651 16.3248 10.7726 16.8119 11.999 16.8119C13.2254 16.8119 14.4015 16.3248 15.2687 15.4576C16.1358 14.5904 16.623 13.4143 16.623 12.1879C16.623 10.9616 16.1358 9.78544 15.2687 8.91827C14.4015 8.0511 13.2254 7.56393 11.999 7.56393ZM11.999 15.1909C11.2023 15.1909 10.4382 14.8744 9.87485 14.3111C9.31149 13.7477 8.995 12.9836 8.995 12.1869C8.995 11.3902 9.31149 10.6261 9.87485 10.0628C10.4382 9.49943 11.2023 9.18293 11.999 9.18293C12.7957 9.18293 13.5598 9.49943 14.1231 10.0628C14.6865 10.6261 15.003 11.3902 15.003 12.1869C15.003 12.9836 14.6865 13.7477 14.1231 14.3111C13.5598 14.8744 12.7957 15.1909 11.999 15.1909Z" fill="#013A37"/>
<path id="Vector_2" d="M16.806 8.47194C17.4014 8.47194 17.884 7.9893 17.884 7.39394C17.884 6.79857 17.4014 6.31594 16.806 6.31594C16.2107 6.31594 15.728 6.79857 15.728 7.39394C15.728 7.9893 16.2107 8.47194 16.806 8.47194Z" fill="#013A37"/>
<path id="Vector_3" d="M20.533 6.29794C20.3015 5.70012 19.9477 5.15722 19.4943 4.704C19.0409 4.25077 18.4979 3.89721 17.9 3.66594C17.2003 3.40329 16.4611 3.26128 15.714 3.24594C14.751 3.20394 14.446 3.19194 12.004 3.19194C9.56195 3.19194 9.24895 3.19194 8.29395 3.24594C7.54734 3.26049 6.80871 3.40254 6.10995 3.66594C5.51189 3.89694 4.96872 4.25041 4.51529 4.70366C4.06186 5.15692 3.70818 5.69996 3.47695 6.29794C3.21426 6.99755 3.07257 7.73677 3.05795 8.48394C3.01495 9.44594 3.00195 9.75094 3.00195 12.1939C3.00195 14.6359 3.00195 14.9469 3.05795 15.9039C3.07295 16.6519 3.21395 17.3899 3.47695 18.0909C3.70883 18.6887 4.06285 19.2315 4.51639 19.6847C4.96993 20.1379 5.51302 20.4915 6.11095 20.7229C6.80839 20.9961 7.54732 21.1483 8.29595 21.1729C9.25895 21.2149 9.56395 21.2279 12.006 21.2279C14.448 21.2279 14.761 21.2279 15.716 21.1729C16.4631 21.1577 17.2022 21.0161 17.902 20.7539C18.4997 20.5221 19.0426 20.1683 19.4959 19.7149C19.9493 19.2616 20.3031 18.7187 20.535 18.1209C20.798 17.4209 20.939 16.6829 20.954 15.9349C20.997 14.9729 21.01 14.6679 21.01 12.2249C21.01 9.78194 21.01 9.47194 20.954 8.51494C20.9423 7.75721 20.7999 7.00718 20.533 6.29794ZM19.315 15.8299C19.3085 16.4062 19.2033 16.9772 19.004 17.5179C18.8538 17.9068 18.6239 18.2599 18.329 18.5546C18.0342 18.8493 17.6809 19.079 17.292 19.2289C16.7572 19.4274 16.1923 19.5326 15.622 19.5399C14.672 19.5839 14.404 19.5949 11.968 19.5949C9.52995 19.5949 9.28095 19.5949 8.31295 19.5399C7.74288 19.533 7.17828 19.4278 6.64395 19.2289C6.25364 19.0799 5.89895 18.8506 5.60284 18.5559C5.30673 18.2612 5.07579 17.9075 4.92495 17.5179C4.7284 16.983 4.62326 16.4188 4.61395 15.8489C4.57095 14.8989 4.56095 14.6309 4.56095 12.1949C4.56095 9.75794 4.56095 9.50894 4.61395 8.53994C4.62042 7.96396 4.72561 7.39336 4.92495 6.85294C5.22995 6.06394 5.85495 5.44294 6.64395 5.14094C7.17854 4.94308 7.74298 4.8379 8.31295 4.82994C9.26395 4.78694 9.53095 4.77494 11.968 4.77494C14.405 4.77494 14.655 4.77494 15.622 4.82994C16.1924 4.8368 16.7573 4.94201 17.292 5.14094C17.6809 5.29121 18.0341 5.52114 18.3289 5.81597C18.6238 6.11079 18.8537 6.46401 19.004 6.85294C19.2005 7.38789 19.3056 7.9521 19.315 8.52194C19.358 9.47294 19.369 9.73994 19.369 12.1769C19.369 14.6129 19.369 14.8749 19.326 15.8309H19.315V15.8299Z" fill="#013A37"/>
</g>
</svg>
