<svg width="868" height="280" viewBox="0 0 868 280" fill="none" xmlns="http://www.w3.org/2000/svg">
<path d="M136.733 105.186C129.759 107.861 123.734 112.544 119.422 118.643C115.11 124.742 112.703 131.983 112.506 139.451C112.31 146.918 114.332 154.275 118.317 160.593C122.303 166.911 128.072 171.905 134.896 174.943C141.72 177.982 149.291 178.928 156.653 177.663C164.015 176.398 170.836 172.978 176.254 167.836C181.672 162.693 185.443 156.06 187.091 148.774C188.739 141.488 188.188 133.878 185.51 126.905C181.92 117.558 174.765 110.019 165.618 105.946C156.471 101.873 146.082 101.6 136.733 105.186ZM172.456 131.908C174.133 136.3 174.47 141.089 173.427 145.672C172.383 150.256 170.005 154.427 166.593 157.66C163.181 160.893 158.887 163.042 154.254 163.837C149.622 164.632 144.857 164.036 140.562 162.125C137.703 160.868 135.123 159.054 132.973 156.788C130.823 154.523 129.146 151.852 128.04 148.931C125.779 143.041 125.95 136.494 128.516 130.731C131.082 124.967 135.833 120.459 141.723 118.197C147.613 115.936 154.16 116.108 159.923 118.674C165.687 121.24 170.195 125.99 172.456 131.88V131.908Z" fill="#025464"/>
<path d="M183.134 66.6389C166.063 59.031 146.882 57.5777 128.86 62.5265C110.837 67.4753 95.0884 78.5201 84.2963 93.7789C73.5043 109.038 68.3369 127.566 69.6746 146.208C71.0124 164.85 78.7724 182.451 91.6327 196.012C104.493 209.574 121.657 218.257 140.202 220.581C158.746 222.906 177.523 218.729 193.333 208.762C209.143 198.794 221.007 183.653 226.905 165.919C232.803 148.184 232.37 128.953 225.678 111.503C221.908 101.582 216.206 92.5073 208.903 84.806C201.6 77.1048 192.841 70.9298 183.134 66.6389ZM174.161 202.824C165.927 206.174 157.106 207.847 148.217 207.746C139.327 207.645 130.547 205.771 122.39 202.235C114.234 198.698 106.865 193.57 100.715 187.151C94.5647 180.731 89.7573 173.149 86.5738 164.848C83.3904 156.547 81.895 147.695 82.1753 138.809C82.4555 129.924 84.5056 121.183 88.2057 113.099C91.9058 105.016 97.1814 97.7516 103.724 91.7322C110.266 85.7128 117.943 81.059 126.307 78.0435C142.853 71.6976 161.244 72.1848 177.431 79.398C193.619 86.6111 206.278 99.9594 212.624 116.506C218.97 133.053 218.483 151.443 211.27 167.631C204.057 183.819 190.708 196.478 174.161 202.824Z" fill="#025464"/>
<path d="M275.042 107.506C274.093 107.873 273.226 108.423 272.49 109.125C271.754 109.828 271.163 110.668 270.752 111.599C270.34 112.529 270.116 113.532 270.092 114.549C270.068 115.566 270.245 116.578 270.612 117.527C270.979 118.475 271.529 119.343 272.231 120.079C272.934 120.815 273.774 121.406 274.705 121.817C275.635 122.229 276.638 122.453 277.655 122.477C278.672 122.501 279.684 122.324 280.633 121.957C282.549 121.216 284.093 119.743 284.923 117.864C285.754 115.985 285.805 113.852 285.063 111.936C284.322 110.02 282.85 108.476 280.97 107.645C279.091 106.815 276.959 106.764 275.042 107.506Z" fill="#025464"/>
<path d="M29.3951 122.991C35.4403 122.991 41.3351 121.107 46.2608 117.603C51.1864 114.098 54.8983 109.146 56.8808 103.436C58.8633 97.7247 59.018 91.5382 57.3233 85.7354C55.6287 79.9327 52.1689 74.8017 47.4245 71.0554C61.3776 49.9891 81.47 33.722 104.979 24.4585C135.681 12.2729 169.963 12.7667 200.301 25.8316C230.639 38.8966 254.554 63.465 266.796 94.1442L279.738 88.973C266.109 54.8725 239.517 27.5657 205.79 13.0364C172.063 -1.49282 133.952 -2.05951 99.8076 11.4606C72.9242 22.0686 50.0736 40.889 34.5104 65.2413C30.5162 64.4901 26.4091 64.583 22.453 65.5142C18.4969 66.4454 14.7794 68.1943 11.5397 70.6483C8.30003 73.1023 5.60975 76.2071 3.6419 79.7632C1.67405 83.3192 0.472188 87.2477 0.113597 91.2961C-0.244995 95.3444 0.247623 99.423 1.55977 103.27C2.87192 107.116 4.97456 110.646 7.73247 113.631C10.4904 116.616 13.8425 118.991 17.5733 120.603C21.3042 122.215 25.3311 123.029 29.3951 122.991ZM23.8046 79.8046C25.582 79.0897 27.4793 78.7197 29.3951 78.7144C31.4509 78.7233 33.4844 79.1414 35.377 79.9443C38.5983 81.3251 41.2413 83.7801 42.8557 86.891C44.47 90.002 44.9558 93.5763 44.2304 97.0053C43.5049 100.434 41.613 103.506 38.877 105.696C36.1411 107.887 32.7302 109.061 29.2257 109.019C25.7211 108.976 22.3395 107.72 19.6571 105.465C16.9747 103.209 15.1574 100.093 14.5148 96.6473C13.8721 93.2019 14.4439 89.6402 16.1327 86.5691C17.8216 83.498 20.5229 81.1074 23.7766 79.8046H23.8046Z" fill="#025464"/>
<path d="M25.0905 173.306C26.0394 172.939 26.9067 172.388 27.6429 171.686C28.3791 170.984 28.9697 170.143 29.3811 169.213C29.7925 168.282 30.0166 167.28 30.0406 166.263C30.0646 165.246 29.888 164.234 29.521 163.285C29.1539 162.336 28.6035 161.469 27.9012 160.732C27.199 159.996 26.3586 159.406 25.428 158.994C24.4975 158.583 23.495 158.359 22.4779 158.335C21.4608 158.311 20.4489 158.487 19.5 158.854C17.5836 159.596 16.0402 161.068 15.2093 162.947C14.3784 164.827 14.3281 166.959 15.0695 168.875C15.8108 170.792 17.2831 172.335 19.1624 173.166C21.0417 173.997 23.1741 174.047 25.0905 173.306Z" fill="#025464"/>
<path d="M297.544 198.463C299.728 193.476 300.47 187.977 299.687 182.589C298.904 177.201 296.626 172.141 293.112 167.982C289.599 163.823 284.99 160.733 279.809 159.061C274.627 157.389 269.081 157.202 263.799 158.523C258.517 159.843 253.711 162.617 249.927 166.531C246.142 170.445 243.529 175.341 242.386 180.664C241.243 185.987 241.615 191.523 243.459 196.646C245.303 201.768 248.546 206.271 252.82 209.644C240.219 228.544 222.689 243.638 202.127 253.294C181.565 262.949 158.755 266.797 136.164 264.422C113.572 262.047 92.0606 253.54 73.9561 239.82C55.8516 226.1 41.8438 207.691 33.4482 186.583L20.3385 191.81C27.0386 208.74 37.0154 224.18 49.6965 237.244C62.3776 250.309 77.5133 260.741 94.2355 267.943C110.958 275.144 128.937 278.973 147.143 279.21C165.348 279.447 183.421 276.087 200.325 269.323C227.268 258.739 250.173 239.905 265.762 215.514C271.113 216.538 276.645 215.994 281.695 213.949C285.226 212.538 288.444 210.444 291.164 207.787C293.884 205.129 296.052 201.961 297.544 198.463ZM256.705 192.481C255.249 188.772 255.313 184.639 256.883 180.977C258.452 177.315 261.401 174.418 265.091 172.914C266.866 172.191 268.765 171.821 270.682 171.824C273.699 171.841 276.643 172.761 279.133 174.465C281.624 176.168 283.548 178.578 284.658 181.384C286.114 185.093 286.05 189.226 284.481 192.889C282.911 196.551 279.962 199.447 276.272 200.951C272.553 202.402 268.411 202.327 264.747 200.741C261.083 199.155 258.193 196.186 256.705 192.481Z" fill="#025464"/>
<path d="M396.58 32.2293H367.23V6.00983H459.753V32.2293H430.375V106.22H396.58V32.2293Z" fill="#025464"/>
<path d="M530.529 35.7513C537.778 41.9008 541.402 51.3767 541.402 64.179V106.22H511.325V95.9611C507.598 103.825 500.2 107.748 489.131 107.729C483.669 107.885 478.244 106.775 473.282 104.487C469.258 102.642 465.86 99.6616 463.507 95.9124C461.153 92.1633 459.945 87.8083 460.032 83.3824C459.856 79.9239 460.583 76.4792 462.142 73.3867C463.7 70.2943 466.037 67.6605 468.921 65.7444C474.847 61.7565 483.82 59.7532 495.839 59.7346H508.949C507.887 53.6223 502.967 50.5661 494.19 50.5661C490.551 50.5843 486.934 51.14 483.457 52.2153C480.111 53.1723 476.953 54.6943 474.12 56.7157L463.806 35.3879C468.861 32.3913 474.348 30.1943 480.074 28.8749C486.279 27.3049 492.654 26.5069 499.054 26.499C512.769 26.499 523.261 29.5831 530.529 35.7513ZM505.008 86.3734C506.926 85.0012 508.34 83.037 509.033 80.7828V75.4719H501.011C494.414 75.4719 491.116 77.6522 491.116 82.0407C491.09 82.9063 491.267 83.7659 491.63 84.5518C491.994 85.3376 492.536 86.0282 493.212 86.569C494.799 87.8194 496.784 88.4546 498.802 88.358C501.029 88.3704 503.202 87.6755 505.008 86.3734Z" fill="#025464"/>
<path d="M592.975 82.2364L587.803 87.827V106.22H555.434V0H587.803V50.7059L610.166 27.9246H648.405L616.175 61.887L651.116 106.22H611.982L592.975 82.2364Z" fill="#025464"/>
<path d="M736.93 74.6333H682.507C683.528 77.4761 685.504 79.8766 688.097 81.4257C691.155 83.1116 694.615 83.9329 698.104 83.8017C701.055 83.8824 703.997 83.4473 706.798 82.5159C709.55 81.4075 712.129 79.9109 714.457 78.0714L731.228 95.1225C723.588 103.508 712.183 107.71 697.014 107.729C688.414 107.906 679.886 106.118 672.08 102.502C665.274 99.3252 659.514 94.2732 655.477 87.9387C651.625 81.6769 649.664 74.4358 649.83 67.0861C649.72 59.6852 651.738 52.4085 655.644 46.1217C659.502 39.9353 665.01 34.9494 671.549 31.7261C678.462 28.3987 686.022 26.6337 693.694 26.5564C701.365 26.4791 708.96 28.0914 715.938 31.2788C722.372 34.3527 727.794 39.202 731.564 45.2551C735.546 51.8279 737.563 59.4033 737.378 67.0861C737.378 67.5054 737.21 70.0491 736.93 74.6333ZM686.224 51.2929C683.925 53.2769 682.401 56.0093 681.92 59.0078H707.077C706.562 56.0372 705.042 53.3336 702.772 51.3488C700.415 49.4195 697.43 48.4246 694.387 48.5535C691.429 48.4829 688.541 49.4524 686.224 51.2929Z" fill="#025464"/>
<path d="M857.127 35.7513C864.357 41.9008 867.981 51.3767 868 64.179V106.22H837.923V95.9611C834.196 103.825 826.798 107.748 815.729 107.729C810.266 107.885 804.842 106.775 799.88 104.487C795.856 102.642 792.458 99.6616 790.104 95.9124C787.751 92.1633 786.543 87.8083 786.63 83.3824C786.454 79.9239 787.181 76.4792 788.74 73.3867C790.298 70.2943 792.635 67.6605 795.519 65.7444C801.445 61.7565 810.418 59.7532 822.437 59.7346H835.491C834.429 53.6223 829.509 50.5661 820.732 50.5661C817.093 50.5867 813.476 51.1424 809.999 52.2153C806.659 53.1664 803.51 54.689 800.69 56.7157L790.376 35.3879C795.418 32.3862 800.897 30.1888 806.616 28.8749C812.821 27.3049 819.196 26.5069 825.596 26.499C839.349 26.499 849.859 29.5831 857.127 35.7513ZM831.606 86.3734C833.524 85.0012 834.938 83.037 835.631 80.7828V75.4719H827.609C821.012 75.4719 817.713 77.6522 817.713 82.0407C817.688 82.9063 817.865 83.7659 818.228 84.5518C818.592 85.3376 819.134 86.0282 819.81 86.569C821.397 87.8194 823.382 88.4546 825.4 88.358C827.627 88.3704 829.8 87.6755 831.606 86.3734Z" fill="#025464"/>
<path d="M469.48 155.472C477.749 158.986 484.8 164.855 489.757 172.348C494.714 179.841 497.358 188.627 497.358 197.611C497.358 206.595 494.714 215.38 489.757 222.873C484.8 230.366 477.749 236.235 469.48 239.749C459.755 243.831 449.277 245.812 438.732 245.563H420.396V276.73H377.572V149.658H438.788C449.312 149.435 459.767 151.415 469.48 155.472ZM449.131 208.582C451.932 205.61 453.492 201.681 453.492 197.597C453.492 193.513 451.932 189.583 449.131 186.611C445.408 183.727 440.744 182.332 436.049 182.698H420.451V212.44H436.049C440.732 212.816 445.39 211.453 449.131 208.61V208.582Z" fill="#025464"/>
<path d="M614.61 236.674H545.595C546.947 240.307 549.515 243.359 552.863 245.312C556.759 247.427 561.151 248.459 565.581 248.303C569.311 248.397 573.029 247.839 576.566 246.653C580.055 245.273 583.323 243.39 586.266 241.063L607.706 262.754C598.034 273.413 583.564 278.743 564.295 278.743C553.39 278.976 542.575 276.71 532.681 272.118C524.05 268.1 516.747 261.699 511.633 253.669C506.786 245.66 504.224 236.476 504.224 227.115C504.224 217.753 506.786 208.569 511.633 200.56C516.552 192.727 523.535 186.401 531.814 182.279C540.565 178.073 550.133 175.841 559.841 175.739C569.55 175.638 579.162 177.67 587.999 181.692C596.144 185.549 603.012 191.66 607.789 199.302C612.86 207.645 615.422 217.271 615.169 227.031C615.169 227.646 614.973 230.86 614.61 236.674ZM550.319 207.073C547.342 209.569 545.358 213.05 544.729 216.884H576.678C576.031 213.118 574.118 209.687 571.255 207.156C568.214 204.879 564.517 203.648 560.717 203.648C556.918 203.648 553.221 204.879 550.179 207.156L550.319 207.073Z" fill="#025464"/>
<path d="M733.213 236.674H664.198C665.55 240.307 668.118 243.359 671.465 245.312C675.362 247.427 679.753 248.459 684.184 248.303C687.914 248.397 691.631 247.839 695.169 246.653C698.663 245.267 701.94 243.384 704.897 241.063L726.336 262.754C716.646 273.413 702.167 278.743 682.898 278.743C672.002 278.973 661.197 276.707 651.312 272.118C642.682 268.088 635.373 261.69 630.235 253.67C625.38 245.663 622.812 236.478 622.812 227.115C622.812 217.751 625.38 208.566 630.235 200.56C635.147 192.731 642.12 186.406 650.389 182.279C659.149 178.068 668.726 175.834 678.444 175.732C688.163 175.631 697.784 177.665 706.63 181.692C714.763 185.567 721.626 191.674 726.42 199.302C731.48 207.669 734.032 217.312 733.772 227.087C733.772 227.646 733.576 230.86 733.213 236.674ZM668.922 207.073C665.997 209.591 664.064 213.07 663.471 216.884H695.449C694.794 213.115 692.871 209.682 689.998 207.156C687.038 204.723 683.289 203.46 679.46 203.606C675.645 203.46 671.905 204.69 668.922 207.073Z" fill="#025464"/>
<path d="M794.261 246.29L787.72 253.39V276.73H746.546V142.027H787.608V206.318L816.12 177.415H864.618L823.695 220.518L868 276.73H818.412L794.261 246.29Z" fill="#025464"/>
</svg>
